<svg width="194" height="50" viewBox="0 0 194 50" fill="none" xmlns="http://www.w3.org/2000/svg">
<path d="M20.168 21.148C21.272 21.148 22.292 21.232 23.228 21.4C24.164 21.568 25.088 21.856 26 22.264C26.912 22.672 27.632 23.296 28.16 24.136C28.688 24.952 28.952 25.948 28.952 27.124C28.952 28.252 28.784 29.236 28.448 30.076C28.136 30.892 27.716 31.552 27.188 32.056C26.684 32.536 26.024 32.92 25.208 33.208C24.392 33.496 23.564 33.7 22.724 33.82C21.908 33.916 20.96 33.964 19.88 33.964H9.8V9.592H16.064C17.96 9.592 19.532 9.664 20.78 9.808C22.028 9.952 23.156 10.228 24.164 10.636C25.172 11.044 25.904 11.644 26.36 12.436C26.84 13.204 27.08 14.2 27.08 15.424C27.08 16.48 26.84 17.392 26.36 18.16C25.904 18.928 25.376 19.504 24.776 19.888C24.2 20.248 23.528 20.536 22.76 20.752C21.992 20.944 21.428 21.064 21.068 21.112C20.708 21.136 20.408 21.148 20.168 21.148ZM14.804 20.104V20.788H17.468C19.028 20.788 20.216 20.392 21.032 19.6C21.848 18.784 22.256 17.284 22.256 15.1C22.256 12.004 20.312 10.456 16.424 10.456H14.804V20.104ZM19.844 33.064C20.996 33.016 21.98 32.512 22.796 31.552C23.612 30.592 24.02 29.32 24.02 27.736C24.02 26.632 23.828 25.684 23.444 24.892C23.06 24.076 22.616 23.476 22.112 23.092C21.632 22.684 21.056 22.372 20.384 22.156C19.712 21.916 19.196 21.784 18.836 21.76C18.476 21.712 18.14 21.676 17.828 21.652C17.78 21.652 17.744 21.652 17.72 21.652H14.804V33.064H19.844ZM42.7594 34V28.6C42.6874 29.752 42.0754 31 40.9234 32.344C39.7954 33.688 38.4394 34.36 36.8554 34.36C34.8874 34.36 33.3274 33.748 32.1754 32.524C31.0474 31.3 30.4834 29.86 30.4834 28.204C30.4834 26.116 31.1914 24.412 32.6074 23.092C34.0234 21.772 35.7874 21.112 37.8994 21.112C39.7474 21.112 41.2594 21.592 42.4354 22.552C42.1954 19.168 41.2354 17.476 39.5554 17.476C37.8994 17.476 36.7834 18.544 36.2074 20.68L32.4994 20.14C33.3154 18.94 34.2274 18.064 35.2354 17.512C36.2434 16.936 37.5274 16.648 39.0874 16.648C41.9674 16.648 44.1154 17.416 45.5314 18.952C46.9714 20.464 47.6914 22.588 47.6914 25.324V34H42.7594ZM42.3634 24.28L42.4354 23.596C41.6674 23.068 40.8754 22.804 40.0594 22.804C38.7154 22.804 37.5154 23.368 36.4594 24.496C35.4034 25.624 34.8754 26.86 34.8754 28.204C34.8754 29.956 35.3554 31.168 36.3154 31.84L36.3874 31.876L36.5674 31.948C36.9514 32.14 37.3594 32.236 37.7914 32.236C40.5034 32.236 42.0274 29.584 42.3634 24.28ZM63.1753 16.828C64.0393 17.188 64.6753 17.692 65.0833 18.34L62.8873 22.876L62.7073 22.192C62.4673 21.352 62.0953 20.56 61.5913 19.816C61.1113 19.048 60.5713 18.664 59.9713 18.664C59.1553 18.664 58.4833 19.24 57.9553 20.392C57.7393 20.872 57.5593 21.352 57.4153 21.832C57.2233 22.48 57.0313 23.284 56.8393 24.244C56.6713 25.18 56.5393 25.96 56.4433 26.584L56.2993 27.52C56.2753 27.664 56.2393 27.868 56.1913 28.132C56.1673 28.372 56.1433 28.552 56.1193 28.672C55.9273 30.232 55.7953 31.48 55.7233 32.416C55.6273 33.136 55.5793 33.664 55.5793 34H50.6473V17.008H55.5793V27.844C55.6273 27.268 55.6753 26.848 55.7233 26.584C56.0833 23.776 56.6233 21.592 57.3433 20.032C57.8713 18.808 58.5553 17.92 59.3953 17.368C59.8993 17.008 60.5353 16.78 61.3033 16.684C62.0713 16.564 62.6953 16.612 63.1753 16.828ZM79.6479 31.984L79.9719 32.488C78.4839 33.712 76.3959 34.324 73.7079 34.324C71.6439 34.324 69.7599 33.532 68.0559 31.948C66.3519 30.364 65.4999 28.216 65.4999 25.504C65.4999 23.008 66.3519 20.908 68.0559 19.204C69.7839 17.5 71.8839 16.648 74.3559 16.648C76.0359 16.648 77.5479 17.092 78.8919 17.98C80.2359 18.844 81.1479 20.2 81.6279 22.048L78.0279 23.272C77.8359 23.344 77.5719 23.44 77.2359 23.56C76.9239 23.656 76.3599 23.884 75.5439 24.244C74.7279 24.604 74.0079 24.964 73.3839 25.324C72.7599 25.66 72.1839 26.092 71.6559 26.62C71.1519 27.124 70.9119 27.604 70.9359 28.06C72.9519 30.94 75.8559 32.248 79.6479 31.984ZM70.3239 26.98C70.4679 26.5 71.0799 25.924 72.1599 25.252C73.2639 24.556 74.2479 24.016 75.1119 23.632C75.9999 23.224 76.8639 22.852 77.7039 22.516L77.2359 21.436C75.7479 18.892 74.1639 17.62 72.4839 17.62C71.3319 17.62 70.4319 18.016 69.7839 18.808C69.1359 19.6 68.8119 20.596 68.8119 21.796C68.8119 21.844 68.8119 21.928 68.8119 22.048C68.8359 22.144 68.8479 22.228 68.8479 22.3C69.0879 24.004 69.5799 25.564 70.3239 26.98Z" fill="#9CC69B"/>
<path d="M94.2422 21.148C95.3462 21.148 96.3662 21.232 97.3022 21.4C98.2382 21.568 99.1622 21.856 100.074 22.264C100.986 22.672 101.706 23.296 102.234 24.136C102.762 24.952 103.026 25.948 103.026 27.124C103.026 28.252 102.858 29.236 102.522 30.076C102.21 30.892 101.79 31.552 101.262 32.056C100.758 32.536 100.098 32.92 99.2822 33.208C98.4662 33.496 97.6382 33.7 96.7982 33.82C95.9822 33.916 95.0342 33.964 93.9542 33.964H83.8742V9.592H90.1382C92.0342 9.592 93.6062 9.664 94.8542 9.808C96.1022 9.952 97.2302 10.228 98.2382 10.636C99.2462 11.044 99.9782 11.644 100.434 12.436C100.914 13.204 101.154 14.2 101.154 15.424C101.154 16.48 100.914 17.392 100.434 18.16C99.9782 18.928 99.4502 19.504 98.8502 19.888C98.2742 20.248 97.6022 20.536 96.8342 20.752C96.0662 20.944 95.5022 21.064 95.1422 21.112C94.7822 21.136 94.4822 21.148 94.2422 21.148ZM88.8782 20.104V20.788H91.5422C93.1022 20.788 94.2902 20.392 95.1062 19.6C95.9222 18.784 96.3302 17.284 96.3302 15.1C96.3302 12.004 94.3862 10.456 90.4982 10.456H88.8782V20.104ZM93.9182 33.064C95.0702 33.016 96.0542 32.512 96.8702 31.552C97.6862 30.592 98.0942 29.32 98.0942 27.736C98.0942 26.632 97.9022 25.684 97.5182 24.892C97.1342 24.076 96.6902 23.476 96.1862 23.092C95.7062 22.684 95.1302 22.372 94.4582 22.156C93.7862 21.916 93.2702 21.784 92.9102 21.76C92.5502 21.712 92.2142 21.676 91.9022 21.652C91.8542 21.652 91.8182 21.652 91.7942 21.652H88.8782V33.064H93.9182ZM118.742 31.984L119.066 32.488C117.578 33.712 115.49 34.324 112.802 34.324C110.738 34.324 108.854 33.532 107.15 31.948C105.446 30.364 104.594 28.216 104.594 25.504C104.594 23.008 105.446 20.908 107.15 19.204C108.878 17.5 110.978 16.648 113.45 16.648C115.13 16.648 116.642 17.092 117.986 17.98C119.33 18.844 120.242 20.2 120.722 22.048L117.122 23.272C116.93 23.344 116.666 23.44 116.33 23.56C116.018 23.656 115.454 23.884 114.638 24.244C113.822 24.604 113.102 24.964 112.478 25.324C111.854 25.66 111.278 26.092 110.75 26.62C110.246 27.124 110.006 27.604 110.03 28.06C112.046 30.94 114.95 32.248 118.742 31.984ZM109.418 26.98C109.562 26.5 110.174 25.924 111.254 25.252C112.358 24.556 113.342 24.016 114.206 23.632C115.094 23.224 115.958 22.852 116.798 22.516L116.33 21.436C114.842 18.892 113.258 17.62 111.578 17.62C110.426 17.62 109.526 18.016 108.878 18.808C108.23 19.6 107.906 20.596 107.906 21.796C107.906 21.844 107.906 21.928 107.906 22.048C107.93 22.144 107.942 22.228 107.942 22.3C108.182 24.004 108.674 25.564 109.418 26.98ZM133.322 34V28.6C133.25 29.752 132.638 31 131.486 32.344C130.358 33.688 129.002 34.36 127.418 34.36C125.45 34.36 123.89 33.748 122.738 32.524C121.61 31.3 121.046 29.86 121.046 28.204C121.046 26.116 121.754 24.412 123.17 23.092C124.586 21.772 126.35 21.112 128.462 21.112C130.31 21.112 131.822 21.592 132.998 22.552C132.758 19.168 131.798 17.476 130.118 17.476C128.462 17.476 127.346 18.544 126.77 20.68L123.062 20.14C123.878 18.94 124.79 18.064 125.798 17.512C126.806 16.936 128.09 16.648 129.65 16.648C132.53 16.648 134.678 17.416 136.094 18.952C137.534 20.464 138.254 22.588 138.254 25.324V34H133.322ZM132.926 24.28L132.998 23.596C132.23 23.068 131.438 22.804 130.622 22.804C129.278 22.804 128.078 23.368 127.022 24.496C125.966 25.624 125.438 26.86 125.438 28.204C125.438 29.956 125.918 31.168 126.878 31.84L126.95 31.876L127.13 31.948C127.514 32.14 127.922 32.236 128.354 32.236C131.066 32.236 132.59 29.584 132.926 24.28ZM151.614 16.972H156.546V33.964H151.614V23.128C151.566 23.656 151.518 24.076 151.47 24.388C151.086 27.268 150.558 29.452 149.886 30.94C149.334 32.14 148.65 33.028 147.834 33.604C147.306 33.964 146.658 34.192 145.89 34.288C145.122 34.384 144.498 34.336 144.018 34.144C143.058 33.808 142.326 33.148 141.822 32.164C141.318 31.18 141.066 30.124 141.066 28.996V16.972H145.998V27.628V30.256C145.998 30.76 146.106 31.228 146.322 31.66C146.562 32.068 146.874 32.284 147.258 32.308C148.074 32.404 148.746 31.828 149.274 30.58C149.61 29.812 149.97 28.564 150.354 26.836C150.69 25.108 150.93 23.608 151.074 22.336C151.122 21.952 151.17 21.556 151.218 21.148C151.266 20.716 151.314 20.248 151.362 19.744C151.434 19.24 151.482 18.844 151.506 18.556C151.578 17.548 151.614 17.02 151.614 16.972ZM167.08 18.376H165.388V27.592C165.388 27.736 165.4 28.012 165.424 28.42C165.448 28.804 165.46 29.104 165.46 29.32C165.484 29.536 165.508 29.824 165.532 30.184C165.58 30.544 165.64 30.844 165.712 31.084C165.784 31.3 165.88 31.54 166 31.804C166.12 32.044 166.264 32.248 166.432 32.416C166.624 32.56 166.84 32.668 167.08 32.74V33.964C164.344 34.036 162.424 33.388 161.32 32.02C161.032 31.636 160.816 31.108 160.672 30.436C160.528 29.74 160.444 29.104 160.42 28.528C160.396 27.952 160.384 27.052 160.384 25.828V18.376H158.728V17.008C158.848 17.008 159.004 17.008 159.196 17.008C159.388 16.984 159.748 16.9 160.276 16.756C160.804 16.588 161.284 16.372 161.716 16.108C162.148 15.82 162.568 15.376 162.976 14.776C163.384 14.152 163.66 13.408 163.804 12.544H165.388V17.008H167.08V18.376ZM184.163 17.008H185.747L176.423 36.196C176.423 36.244 176.399 36.292 176.351 36.34C175.823 37.348 175.115 38.188 174.227 38.86C173.363 39.532 172.403 39.868 171.347 39.868C170.411 39.868 169.619 39.568 168.971 38.968C168.347 38.392 168.035 37.612 168.035 36.628C168.035 35.716 168.299 34.912 168.827 34.216C169.355 33.52 170.003 33.004 170.771 32.668C171.563 32.308 172.235 32.056 172.787 31.912C173.363 31.744 173.855 31.636 174.263 31.588C174.551 31.564 174.695 31.396 174.695 31.084C174.695 30.748 174.623 30.424 174.479 30.112L174.263 29.644L168.143 17.008H173.471L178.835 28.096L184.163 17.008ZM175.955 33.964L177.035 31.804C176.267 32.188 175.415 32.38 174.479 32.38C172.295 32.38 170.699 33.076 169.691 34.468C168.971 35.5 168.851 36.436 169.331 37.276C169.571 37.684 169.931 37.972 170.411 38.14C170.675 38.236 170.975 38.284 171.311 38.284C172.895 38.284 174.359 37.024 175.703 34.504L175.955 33.964Z" fill="#79B4A9"/>
</svg>
